<?xml version="1.0" encoding="UTF-8" standalone="no"?>
<svg
   width="100"
   height="100"
   viewBox="0 0 100 100"
   fill="none"
   version="1.1"
   id="svg18"
   sodipodi:docname="Interior Design landing page.svg"
   inkscape:version="1.2.1 (9c6d41e410, 2022-07-14)"
   inkscape:export-filename="../../../../../ineuronjs/Assignments/Project 10/assets/card.svg"
   inkscape:export-xdpi="96"
   inkscape:export-ydpi="96"
   xmlns:inkscape="http://www.inkscape.org/namespaces/inkscape"
   xmlns:sodipodi="http://sodipodi.sourceforge.net/DTD/sodipodi-0.dtd"
   xmlns="http://www.w3.org/2000/svg"
   xmlns:svg="http://www.w3.org/2000/svg">
  <defs
     id="defs22" />
  <sodipodi:namedview
     id="namedview20"
     pagecolor="#ffffff"
     bordercolor="#000000"
     borderopacity="0.25"
     inkscape:showpageshadow="2"
     inkscape:pageopacity="0"
     inkscape:pagecheckerboard="0"
     inkscape:deskcolor="#d1d1d1"
     showgrid="false"
     inkscape:zoom="0.915625"
     inkscape:cx="26.757679"
     inkscape:cy="53.515358"
     inkscape:window-width="1366"
     inkscape:window-height="699"
     inkscape:window-x="0"
     inkscape:window-y="0"
     inkscape:window-maximized="1"
     inkscape:current-layer="svg18" />
  <rect
     x="0.97100401"
     y="26.935156"
     width="100"
     height="47"
     rx="23.5"
     fill="#ffffff"
     id="rect8" />
  <path
     d="m 61.409994,34.351154 c -0.861,-0.9181 -2.061,-2.082597 -3.708,-2.944997 -1.594,-0.8346 -3.186,-1.2614 -5.326,-1.4287 -0.359,-0.0281 -0.721,-0.0423 -1.075,-0.0423 -4.428,0 -7.502,2.1446 -9.301,3.943697 -2.012,2.0112 -4.337,5.4112 -3.995,10.1878 0.253,3.5276 2.274,6.3005 3.897,8.5286 l 0.069,0.0954 c 0.29,0.3972 0.591,0.7862 0.91,1.199 1.004,1.2963 2.042,2.6367 2.787,4.3394 l 0.086,0.1949 c 0.305,0.6911 0.683,1.5511 0.638,1.9937 -0.033,0.3164 -0.17,0.471 -0.328,0.65 -0.219,0.2486 -0.492,0.558 -0.317,1.2208 0.228,0.8602 1.312,0.8602 2.567,0.8602 h 6.542 c 1.035,0 2.106,0 2.334,-0.8605 0.172,-0.6475 -0.127,-1.0105 -0.367,-1.302 -0.136,-0.1649 -0.253,-0.3073 -0.279,-0.486 -0.122,-0.8642 0.811,-2.8266 1.73,-4.2842 0.581,-0.92 1.203,-1.719 1.806,-2.4915 0.278,-0.3571 0.542,-0.6945 0.791,-1.0319 0.132,-0.1787 0.265,-0.3573 0.399,-0.5355 1.67,-2.239 3.397,-4.5538 3.662,-7.9955 0.375,-4.8679 -2.046,-8.236 -3.522,-9.8104 z m -2.491,16.6023 c -0.12,0.1579 -0.239,0.3154 -0.358,0.4727 -0.208,0.2758 -0.416,0.5496 -0.625,0.8213 -1.875,2.4501 -3.647,4.7675 -4.062,8.292 h -4.815 c -0.517,-3.7264 -2.323,-6.103 -4.234,-8.6158 -0.148,-0.1956 -0.298,-0.3926 -0.448,-0.5909 l -0.255,-0.3371 c -1.488,-1.9633 -3.175,-4.1884 -3.417,-6.7885 -0.383,-4.1067 1.518,-6.9071 3.179,-8.5331 2.122,-2.0779 4.684,-3.131497 7.612,-3.131497 0.335,0 0.678,0.0142 1.021,0.0423 5.168,0.4223 9.344,4.637297 9.715,9.804597 0.274,3.8354 -1.55,6.2392 -3.314,8.564 z"
     fill="#231f20"
     id="path10" />
  <path
     d="m 55.402994,67.415354 c -0.421,-0.089 -1.028,-0.1288 -1.97,-0.1288 -0.488,0 -1.017,0.0107 -1.529,0.0211 -0.507,0.0101 -1.03,0.0208 -1.507,0.0208 -0.21,0 -0.428,-0.0039 -0.658,-0.0078 -0.237,-0.004 -0.481,-0.0081 -0.722,-0.0081 -0.855,0 -2.634,0 -2.719,1.121 -0.024,0.3073 0.076,0.5654 0.295,0.7667 0.489,0.4487 1.473,0.5092 2.37,0.5092 0.417,0 0.855,-0.0155 1.279,-0.0305 0.417,-0.0149 0.812,-0.0286 1.18,-0.0286 0.265,0 0.565,9e-4 0.882,0.0017 0.688,0.0019 1.452,0.0042 2.103,-0.0017 1.106,-0.0101 2.152,-0.0195 2.232,-1.0242 0.076,-0.9327 -0.683,-1.0934 -1.236,-1.2108 z"
     fill="#231f20"
     id="path12" />
</svg>
