<?xml version="1.0" encoding="UTF-8" standalone="no"?>
<svg
   width="35"
   height="35"
   viewBox="0 0 35 35"
   fill="none"
   version="1.1"
   id="svg18"
   sodipodi:docname="call.svg"
   inkscape:version="1.2.1 (9c6d41e410, 2022-07-14)"
   inkscape:export-filename="../../../../../ineuronjs/Assignments/Project 10/assets/bulb.svg"
   inkscape:export-xdpi="96"
   inkscape:export-ydpi="96"
   xmlns:inkscape="http://www.inkscape.org/namespaces/inkscape"
   xmlns:sodipodi="http://sodipodi.sourceforge.net/DTD/sodipodi-0.dtd"
   xmlns="http://www.w3.org/2000/svg"
   xmlns:svg="http://www.w3.org/2000/svg">
  <defs
     id="defs22" />
  <sodipodi:namedview
     id="namedview20"
     pagecolor="#ffffff"
     bordercolor="#000000"
     borderopacity="0.25"
     inkscape:showpageshadow="2"
     inkscape:pageopacity="0"
     inkscape:pagecheckerboard="0"
     inkscape:deskcolor="#d1d1d1"
     showgrid="false"
     inkscape:zoom="5.1795572"
     inkscape:cx="77.130145"
     inkscape:cy="16.024536"
     inkscape:window-width="1366"
     inkscape:window-height="699"
     inkscape:window-x="0"
     inkscape:window-y="0"
     inkscape:window-maximized="1"
     inkscape:current-layer="svg18" />
  <path
     d="m 29.433777,19.973398 c -0.352,0 -0.72,-0.1124 -1.072,-0.1927 -0.713,-0.1599 -1.414,-0.3691 -2.097,-0.6263 -0.743,-0.271 -1.56,-0.2569 -2.293,0.0395 -0.733,0.2965 -1.33,0.8544 -1.678,1.5663 l -0.352,0.7387 c -1.555,-0.8845 -2.991,-1.9637 -4.275,-3.2116 -1.244,-1.2873 -2.32,-2.728 -3.202,-4.2876 l 0.737,-0.3372 c 0.71,-0.3486 1.266,-0.9482 1.561,-1.6834 0.296,-0.7352 0.31,-1.5541 0.04,-2.2990993 -0.255,-0.692 -0.463,-1.4001 -0.625,-2.1196 -0.08,-0.3533 -0.144,-0.7227 -0.192,-1.076 -0.194,-1.1311 -0.785,-2.1554 -1.665,-2.8884 -0.881,-0.7331 -1.994,-1.1267 -3.138,-1.1101 H 6.3637763 c -0.677,-8e-4 -1.346,0.1418 -1.964,0.4185 -0.618,0.2767 -1.171,0.6814 -1.622,1.1874 -0.46,0.5197 -0.803,1.1333 -1.005,1.7985 -0.202,0.6653 -0.258,1.3665 -0.164,2.0555 0.871,6.6835993 3.915,12.8925993 8.6620007,17.6639993 4.757,4.761 10.947,7.8146 17.611,8.6876 0.207,0.0159 0.416,0.0159 0.624,0 1.18,0.0017 2.32,-0.4328 3.202,-1.2205 0.504,-0.4525 0.908,-1.007 1.184,-1.6269 0.276,-0.6199 0.418,-1.2913 0.417,-1.9701 v -4.8175 c -0.009,-1.1096 -0.399,-2.1821 -1.105,-3.0365 -0.706,-0.8543 -1.684,-1.438 -2.77,-1.6525 z m 0.785,9.6349 c -10e-4,0.2241 -0.048,0.4456 -0.139,0.6503 -0.091,0.2046 -0.224,0.3879 -0.389,0.5381 -0.176,0.1603 -0.385,0.2795 -0.612,0.3489 -0.227,0.0695 -0.466,0.0874 -0.701,0.0525 -5.975,-0.7826 -11.527,-3.5135 -15.802,-7.7722 -4.2790002,-4.2916 -7.0250007,-9.88 -7.8130007,-15.8976993 -0.034,-0.2355 -0.017,-0.4758 0.053,-0.7036 0.069,-0.2277 0.188,-0.4371 0.348,-0.6131 0.151,-0.1684 0.336,-0.3027 0.543,-0.394 0.207,-0.0914 0.431,-0.1377 0.657,-0.136 h 4.8030007 c 0.37,-0.009 0.732,0.1108 1.024,0.3392 0.292,0.2284 0.496,0.5511 0.577,0.9134 0,0.4336 0.144,0.8832 0.24,1.3168 0.185,0.8412 0.432,1.6677 0.737,2.4728993 l -2.242,1.0599 c -0.385,0.1774 -0.684,0.5008 -0.832,0.8992 -0.16,0.391 -0.16,0.8295 0,1.2205 2.304,4.9503 6.271,8.9296 11.207,11.2407 0.39,0.1607 0.827,0.1607 1.217,0 0.397,-0.1483 0.719,-0.4486 0.896,-0.835 l 1.009,-2.2481 c 0.826,0.3021 1.671,0.5488 2.529,0.7386 0.417,0.0964 0.865,0.1767 1.297,0.2409 0.361,0.0816 0.683,0.2862 0.911,0.579 0.227,0.2928 0.347,0.6556 0.338,1.0268 z m -9.446,-27.2989993 c -0.368,0 -0.752,0 -1.121,0 -0.424,0.0362 -0.817,0.2401 -1.092,0.5669 -0.274,0.3267 -0.409,0.7495 -0.372,1.1754 0.036,0.4259 0.239,0.82 0.565,1.0955 0.325,0.2756 0.747,0.4101 1.172,0.3739 h 0.848 c 2.548,0 4.991,1.0151 6.793,2.822 1.801,1.8068993 2.813,4.2575993 2.813,6.8128993 0,0.2891 0,0.562 0,0.8511 -0.035,0.4236 0.098,0.8441 0.371,1.1692 0.273,0.3251 0.664,0.5283 1.086,0.5651 h 0.128 c 0.401,0.0016 0.788,-0.1476 1.084,-0.4181 0.296,-0.2706 0.481,-0.6428 0.517,-1.0432 0,-0.3694 0,-0.7548 0,-1.1241 0,-3.4043 -1.347,-6.6694993 -3.746,-9.0781993 -2.398,-2.4088 -5.652,-3.7641 -9.046,-3.7684 z m 3.202,12.8465993 c 0,0.4259 0.169,0.8343 0.469,1.1355 0.3,0.3012 0.707,0.4703 1.132,0.4703 0.425,0 0.832,-0.1691 1.132,-0.4703 0.3,-0.3012 0.469,-0.7096 0.469,-1.1355 0,-1.7036 -0.675,-3.3374 -1.876,-4.542 -1.201,-1.2045993 -2.829,-1.8812993 -4.528,-1.8812993 -0.424,0 -0.832,0.1692 -1.132,0.4703 -0.3,0.3012 -0.469,0.7096 -0.469,1.1354993 0,0.4259 0.169,0.8344 0.469,1.1355 0.3,0.3012 0.708,0.4704 1.132,0.4704 0.849,0 1.664,0.3383 2.264,0.9406 0.601,0.6023 0.938,1.4192 0.938,2.271 z"
     fill="#000000"
     id="path6"
     style="fill:#ffffff" />
</svg>
