<?xml version="1.0" encoding="UTF-8" standalone="no"?>
<svg
   width="100"
   height="100"
   viewBox="0 0 100 100"
   fill="none"
   version="1.1"
   id="svg18"
   sodipodi:docname="Interior Design landing page.svg"
   inkscape:version="1.2.1 (9c6d41e410, 2022-07-14)"
   xmlns:inkscape="http://www.inkscape.org/namespaces/inkscape"
   xmlns:sodipodi="http://sodipodi.sourceforge.net/DTD/sodipodi-0.dtd"
   xmlns="http://www.w3.org/2000/svg"
   xmlns:svg="http://www.w3.org/2000/svg">
  <defs
     id="defs22" />
  <sodipodi:namedview
     id="namedview20"
     pagecolor="#ffffff"
     bordercolor="#000000"
     borderopacity="0.25"
     inkscape:showpageshadow="2"
     inkscape:pageopacity="0"
     inkscape:pagecheckerboard="0"
     inkscape:deskcolor="#d1d1d1"
     showgrid="false"
     inkscape:zoom="0.915625"
     inkscape:cx="26.757679"
     inkscape:cy="53.515358"
     inkscape:window-width="1366"
     inkscape:window-height="699"
     inkscape:window-x="0"
     inkscape:window-y="0"
     inkscape:window-maximized="1"
     inkscape:current-layer="svg18" />
  <rect
     y="27"
     width="100"
     height="47"
     rx="23.5"
     fill="#ffffff"
     id="rect14"
     x="0" />
  <path
     d="m 55.5606,37.3307 c 0.0038,-0.0537 0.0038,-0.1075 0,-0.1612 -0.0232,-1.1131 -0.4913,-2.173 -1.304,-2.9524 C 53.4439,33.4377 52.3512,33.0007 51.213,33 c -1.1382,-7e-4 -2.2315,0.4348 -3.0452,1.2132 -0.8138,0.7784 -1.2834,1.8376 -1.308,2.9507 0.3348,2.1023 1.214,2.7648 1.8977,4.3203 l -9.5154,-0.1831 -0.1853,9.2293 c -1.8032,-0.6874 -3.0983,-1.923 -4.628,-1.9517 -0.0553,-0.0035 -0.1108,-0.0035 -0.1661,0 -1.1377,0.0223 -2.2211,0.4798 -3.018,1.2743 -0.7969,0.7945 -1.2437,1.8628 -1.2447,2.9758 -0.001,1.1129 0.4439,2.182 1.2393,2.9778 0.7955,0.7959 1.8781,1.2553 3.0157,1.2796 2.2766,-0.3462 2.9015,-1.2924 4.7072,-1.9717 l -0.1917,9.4287 9.557,0.1837 c -0.685,-1.6186 -1.5942,-2.2661 -1.9348,-4.4072 0.0246,-1.1129 0.494,-2.172 1.3076,-2.9503 0.8136,-0.7784 1.9066,-1.2139 3.0447,-1.2132 1.138,6e-4 2.2305,0.4374 3.0432,1.2167 0.8127,0.7792 1.2808,1.8389 1.304,2.9518 0.0032,0.0539 0.0032,0.108 0,0.1619 -0.0288,1.4374 -1.1981,2.6685 -1.9169,4.3334 L 62.5329,65 63,41.7517 53.6769,41.5729 c 0.7259,-1.6174 1.8555,-2.8273 1.8837,-4.2422 z"
     fill="#000000"
     id="path16" />
</svg>
